<svg xmlns="http://www.w3.org/2000/svg" viewBox="15 5 345 105" width="100%" height="100%" fill="none">
  <!-- Deep Navy Blue Color: #0A1E42 -->
  <g fill="#0A1E42">
    <!-- Three Stars above Shield -->
    <!-- Left Star -->
    <path d="M 40 13.8 L 41.3 17.5 L 45.2 17.5 L 42.1 19.8 L 43.3 23.5 L 40 21.2 L 36.7 23.5 L 37.9 19.8 L 34.8 17.5 L 38.7 17.5 Z" />
    <!-- Center Star (Slightly larger and higher) -->
    <path d="M 60 7.2 L 61.6 11.8 L 66.5 11.8 L 62.5 14.7 L 64.1 19.4 L 60 16.5 L 55.9 19.4 L 57.5 14.7 L 53.5 11.8 L 58.4 11.8 Z" />
    <!-- Right Star -->
    <path d="M 80 13.8 L 81.3 17.5 L 85.2 17.5 L 82.1 19.8 L 83.3 23.5 L 80 21.2 L 76.7 23.5 L 77.9 19.8 L 74.8 17.5 L 78.7 17.5 Z" />

    <!-- Outer Stepped Wings of Shield Crest -->
    <!-- Left Wing -->
    <path d="M 25 20 L 25 54 L 31 60 L 31 74 L 37 80 L 37 86 L 60 102 L 60 88 L 48 76 L 37 60 L 37 32 Z" />
    <!-- Right Wing -->
    <path d="M 95 20 L 95 54 L 89 60 L 89 74 L 83 80 L 83 86 L 60 102 L 60 88 L 72 76 L 83 60 L 83 32 Z" />

    <!-- Bottom Feathers/Teeth -->
    <!-- Left Bottom Tooth -->
    <path d="M 25 74 L 20 80 L 32 92 L 37 86 Z" />
    <!-- Right Bottom Tooth -->
    <path d="M 95 74 L 100 80 L 88 92 L 83 86 Z" />
    <!-- Center Bottom Feather -->
    <path d="M 48 88 L 60 100 L 72 88 L 60 84 Z" />

    <!-- Center Monogram Letter C with Cap -->
    <!-- Cap above C -->
    <path d="M 56 26 L 64 26 L 66 32 L 54 32 Z" />
    <!-- Main C Monogram with right-angle notches -->
    <path d="M 43 34 L 74 34 L 74 43 L 66 43 L 66 40 L 52 40 L 52 62 L 66 62 L 66 59 L 74 59 L 74 68 L 43 68 Z" />

    <!-- Typography: Chalapathi University -->
    <text x="120" y="53" font-family="Georgia, 'Times New Roman', Times, serif" font-size="42" font-weight="700" letter-spacing="-0.5">Chalapathi</text>
    <text x="120" y="96" font-family="Georgia, 'Times New Roman', Times, serif" font-size="42" font-weight="700" letter-spacing="-0.5">University</text>
  </g>
</svg>
